<svg xmlns="http://www.w3.org/2000/svg" viewBox="0 0 265 50"><defs><style>.cls-1{fill:#09080a;}.cls-2{opacity:0.4;}</style></defs><title>textLogo-black</title><g id="テキストロゴ_黒_" data-name="テキストロゴ（黒）"><g id="ロゴ"><path class="cls-1" d="M50.7,2.7,44.3,39.5H37.4L39,30.3H32.2l-1.6,9.2H24.2l4.5-25.3H35L33.1,24.9h6.8l4-22.2Z"/><path class="cls-1" d="M58.4,31.8H54.2L51.9,46.6H45.6L51,14.2H61.7c2.6,0,4.5.6,5.6,1.8a5.2,5.2,0,0,1,1.3,3.6,10,10,0,0,1-.2,1.6l-.7,3.9a7.1,7.1,0,0,1-3.1,4.8A9.7,9.7,0,0,1,58.4,31.8Zm1.1-12.1H56.3l-1.1,6.6h3.1c1.9,0,3-.8,3.3-2.5l.3-1.5v-.8a1.6,1.6,0,0,0-.5-1.2A2.4,2.4,0,0,0,59.5,19.7Z"/><path class="cls-1" d="M15.1,31.8H10.9L8.5,46.6H2.2L7.7,14.2H18.4c2.6,0,4.5.6,5.6,1.8a5.6,5.6,0,0,1,1.2,3.6,9.2,9.2,0,0,1-.1,1.6l-.7,3.9a7.1,7.1,0,0,1-3.1,4.8A9.9,9.9,0,0,1,15.1,31.8Zm1.1-12.1H13l-1.1,6.6H15c1.9,0,3-.8,3.3-2.5l.2-1.5a1.9,1.9,0,0,0,.1-.8,2.1,2.1,0,0,0-.5-1.2A2.5,2.5,0,0,0,16.2,19.7Z"/><path class="cls-1" d="M78,22.1a11.2,11.2,0,0,0-6.6,1.8A7.6,7.6,0,0,0,68.3,29l-.7,4.4a7.7,7.7,0,0,0-.2,1.5c0,3.4,2.4,5,7.3,5s8.4-2.1,9.2-6.5H78a1.9,1.9,0,0,1-.7,1.3,2.2,2.2,0,0,1-1.4.5c-1.5,0-2.3-.7-2.3-2a2,2,0,0,1,.1-.7v-.8H84.5l.4-2.5a11.1,11.1,0,0,0,.2-1.7C85.1,23.8,82.7,22.1,78,22.1Zm-2,5.8c-.1.9-.6,1.5-1.1,1.5s-.8-.8-.7-1.6.5-1.5,1-1.5A1.4,1.4,0,0,1,76,27.9Zm3.7.1c-.1.8-.6,1.5-1.1,1.4s-.9-.7-.8-1.6.6-1.5,1.1-1.4S79.7,27.2,79.7,28Z"/><path class="cls-1" d="M102.6,26.2a9.3,9.3,0,0,1-.4,2.3,11.6,11.6,0,0,1-.8,1.6l-.4.5H95.7a2.5,2.5,0,0,0,.9-2,1.8,1.8,0,0,0-.4-1,1.5,1.5,0,0,0-1.1-.4A2.6,2.6,0,0,0,93,28.4L91,39.5H85.1l3-16.9h5.5l-.4,2.3A5.9,5.9,0,0,1,98,22.1a4.8,4.8,0,0,1,3.4,1.1A3.8,3.8,0,0,1,102.6,26.2Z"/><path class="cls-1" d="M133.7,3,122.4,21.4l3.5,12.5h-6.6l-2.7-9.3h-2.7l-3.1,19.8h-6.3l5.9-35.8h6.3l-1.9,10.5h2.3L127,3Z"/><path class="cls-1" d="M143.4,28.5a.8.8,0,0,0,.9.9,2.4,2.4,0,0,0,1.5-.4v4a6.2,6.2,0,0,1-3.8,1.4c-2.6,0-4-1-4.3-2.8a5.9,5.9,0,0,1-5.1,2.8c-3.9,0-5.8-1.7-5.8-5a12.4,12.4,0,0,1,.2-1.8l.7-4.1a8.9,8.9,0,0,1,2.6-5.1,7.5,7.5,0,0,1,5.2-1.9c2.2,0,3.7.6,4.4,1.6L140,17h5.4l-2,11ZM133,26.8a2.2,2.2,0,0,0-.1.9,2.1,2.1,0,0,0,.5,1.1,3,3,0,0,0,1.8.5,2.8,2.8,0,0,0,2.2-1l1-5.9c-.2-.5-.9-.8-1.8-.8a2.9,2.9,0,0,0-3.2,2.6Z"/><path class="cls-1" d="M154.7,29.4a2.3,2.3,0,0,0,1.4-.4v4a5.9,5.9,0,0,1-3.8,1.4c-2.1,0-3.5-.5-4.1-1.5a4.2,4.2,0,0,1-.6-2.1,10.9,10.9,0,0,1,.1-1.9L149.7,17h6l-2,11v.4C153.7,29.1,154,29.4,154.7,29.4Z"/><path class="cls-1" d="M168.3,45.7c-2.5,2.8-9.5,5.6-13.5,1.7-1.6-1.7-2.5-4.8-.3-8.7,1.3-2.3,4.6-3.9,6-4.7q-3-.9-3-4.5a6.5,6.5,0,0,1,.2-1.9l.7-4.1a8.8,8.8,0,0,1,2.5-5.1,8,8,0,0,1,5.3-1.9c2.2,0,3.7.6,4.5,1.6l.2-1.1h5.2L173,34.4C172.5,37.4,171.8,41.8,168.3,45.7Zm-1-12.3c-2.2,1.1-6.5,3.3-8,6.7s1.5,3.9,4,1.9S167.3,33.4,167.3,33.4Zm-3.5-6.6a2.2,2.2,0,0,0-.1.9,2.1,2.1,0,0,0,.5,1.1,2.8,2.8,0,0,0,1.8.5,2.6,2.6,0,0,0,2.1-1l1.1-5.9a2.1,2.1,0,0,0-1.9-.8,2.8,2.8,0,0,0-2.1.7,2.9,2.9,0,0,0-1,1.9Z"/><path class="cls-1" d="M154.7,29.4a3.3,3.3,0,0,0,1.4-.4l-.2,4a5.6,5.6,0,0,1-3.7,1.3c-2.1,0-3.5-.5-4.1-1.4a3.5,3.5,0,0,1-.7-2.1,11.2,11.2,0,0,1,.2-2L149.7,17h5.9l-1.9,11a.8.8,0,0,0-.1.4A1,1,0,0,0,154.7,29.4Zm-2-23.8,4.7,4.7L152.6,15l-4.7-4.7Z"/><path class="cls-1" d="M183.9,29.4a3.3,3.3,0,0,0,1.5-.4l-.2,4a5.7,5.7,0,0,1-3.8,1.3c-2.1,0-3.5-.5-4.1-1.4a4.2,4.2,0,0,1-.6-2.1,12.1,12.1,0,0,1,.1-2L178.9,17h6l-2,11v.4A.9.9,0,0,0,183.9,29.4Zm-2-23.8,4.7,4.8L181.9,15l-4.7-4.7Z"/><path class="cls-1" d="M199.1,21.7a3.7,3.7,0,0,0,.2,1.2h-4.9a4.4,4.4,0,0,1-.2-1.7,7.2,7.2,0,0,1,2.3-5.5,9.7,9.7,0,0,1,6.5-2c4.5,0,6.8,1.8,6.8,5.5a8.1,8.1,0,0,1-.9,3.7,9,9,0,0,1-2.4,2.7,22.2,22.2,0,0,1-2.7,1.9l-2.4,1.3a2.8,2.8,0,0,0-1.1.9h7.5l-.8,4.4H192.4l.3-2.1a7.7,7.7,0,0,1,1.4-3.2,9,9,0,0,1,2.3-2.1l2.8-1.6,2.7-1.4a6.2,6.2,0,0,0,2-1.5,3.2,3.2,0,0,0,.8-2.1c0-1.4-.8-2-2.3-2a3.2,3.2,0,0,0-2.4.9A4,4,0,0,0,199.1,21.7Z"/><path class="cls-1" d="M220.8,13.7c4.4,0,6.6,2,6.6,5.9a22.9,22.9,0,0,1-.2,2.5l-.7,3.9a11.3,11.3,0,0,1-3,6.4,8.9,8.9,0,0,1-6.3,2.1c-2.7,0-4.6-.7-5.6-2.1a6.7,6.7,0,0,1-1.1-3.9,11.3,11.3,0,0,1,.3-2.5l.6-3.9C212.4,16.5,215.5,13.7,220.8,13.7Zm-5.2,14a2.1,2.1,0,0,0,2.3,2.4,3.2,3.2,0,0,0,2.3-.9,6.4,6.4,0,0,0,1.3-3.3l.6-3.7a11.5,11.5,0,0,0,.2-1.6c0-1.7-.7-2.5-2.2-2.5s-3.1,1.4-3.6,4.1l-.7,3.7A14.1,14.1,0,0,0,215.6,27.7Z"/><path class="cls-1" d="M238.1,34.1H233l2.4-13.5a5.4,5.4,0,0,1-2.5,2.1,7.1,7.1,0,0,1-3.7,1l-.4-4.7a8.5,8.5,0,0,0,5-1.6,6.9,6.9,0,0,0,2.8-3.5h5Z"/><path class="cls-1" d="M247.9,25.9a4.5,4.5,0,0,1-3.6-1.3,4.5,4.5,0,0,1-1.2-3.3,7.3,7.3,0,0,1,2.1-5.6,9.7,9.7,0,0,1,6.5-2c2.9,0,4.9.6,5.9,1.8a4.9,4.9,0,0,1,1,3.4,14.1,14.1,0,0,1-.1,2l-1.2,6.5c-.8,4.7-3.8,7.1-9,7.1a8.4,8.4,0,0,1-4.9-1.2,3.9,3.9,0,0,1-1.7-3.2,7.7,7.7,0,0,1,.2-1.5,3.8,3.8,0,0,1,.5-1.1v-.4h5a3,3,0,0,0-.5,1.5q0,1.5,2.1,1.5c1.8,0,2.9-1,3.2-3.1l.2-1.1Zm2.4-3.8h2.9v-.8a6.1,6.1,0,0,0,.1-1.4q0-1.8-2.1-1.8c-2.1,0-3.1.7-3.1,2.3S248.9,22.1,250.3,22.1Z"/></g></g></svg>